{
DisplayStrings = (
P
);
date = "2013-05-07 17:01:52 +0000";
designer = "Shinji Pons";
designerURL = www.shinjipons.com;
familyName = "Modulo 22";
fontMaster = (
{
alignmentZones = (
"{128, 129}",
"{128, 129}",
"{128, 129}",
"{0, -2}",
"{0, -2}"
);
ascender = 128;
capHeight = 128;
customParameters = (
{
name = familyName;
value = "Modulo 22";
}
);
descender = 0;
guideLines = (
{
position = "{-25, 43}";
},
{
angle = 90;
position = "{93, 139}";
},
{
angle = 90;
position = "{51, 135}";
},
{
position = "{-22, 85}";
},
{
angle = 90;
position = "{50, 143}";
},
{
angle = 90;
position = "{94, 136}";
},
{
position = "{-22, 86}";
},
{
position = "{-24, 42}";
},
{
angle = 90;
position = "{136, -22}";
},
{
angle = 90;
position = "{8, -30}";
}
);
horizontalStems = (
22
);
id = "940E2F63-624A-4C3D-A909-721782B4CF41";
userData = {
GSCornerRadius = 24;
};
verticalStems = (
22
);
weightValue = 22;
widthValue = 128;
xHeight = 128;
}
);
glyphs = (
{
glyphname = A;
lastChange = "2013-05-31 22:24:36 +0200";
layers = (
{
layerId = "940E2F63-624A-4C3D-A909-721782B4CF41";
name = Regular;
paths = (
{
closed = 1;
nodes = (
"115 128 LINE",
"136 107 LINE",
"136 21 LINE",
"115 0 LINE",
"29 0 LINE",
"8 21 LINE",
"8 64 LINE",
"29 85 LINE",
"72 85 LINE",
"72 43 LINE",
"50 43 LINE",
"50 42 LINE",
"94 42 LINE",
"94 86 LINE",
"29 86 LINE",
"29 128 LINE"
);
},
{
closed = 1;
nodes = (
"83.5981 43 OFFCURVE",
"93 52.4019 OFFCURVE",
"93 64 CURVE SMOOTH",
"93 75.5981 OFFCURVE",
"83.5981 85 OFFCURVE",
"72 85 CURVE",
"72 43 LINE"
);
},
{
closed = 1;
nodes = (
"29 128 LINE",
"17.4019 128 OFFCURVE",
"8 118.598 OFFCURVE",
"8 107 CURVE SMOOTH",
"8 95.4019 OFFCURVE",
"17.4019 86 OFFCURVE",
"29 86 CURVE"
);
},
{
closed = 1;
nodes = (
"17.4019 0 OFFCURVE",
"8 9.40191 OFFCURVE",
"8 21 CURVE SMOOTH",
"8 32.5981 OFFCURVE",
"17.4019 42 OFFCURVE",
"29 42 CURVE SMOOTH",
"40.5981 42 OFFCURVE",
"50 32.5981 OFFCURVE",
"50 21 CURVE SMOOTH",
"50 9.40191 OFFCURVE",
"40.5981 0 OFFCURVE",
"29 0 CURVE SMOOTH"
);
},
{
closed = 1;
nodes = (
"17.402 43 OFFCURVE",
"8 52.402 OFFCURVE",
"8 64 CURVE SMOOTH",
"8 75.598 OFFCURVE",
"17.402 85 OFFCURVE",
"29 85 CURVE SMOOTH",
"40.598 85 OFFCURVE",
"50 75.598 OFFCURVE",
"50 64 CURVE SMOOTH",
"50 52.402 OFFCURVE",
"40.598 43 OFFCURVE",
"29 43 CURVE SMOOTH"
);
},
{
closed = 1;
nodes = (
"103.402 0 OFFCURVE",
"94 9.402 OFFCURVE",
"94 21 CURVE SMOOTH",
"94 32.598 OFFCURVE",
"103.402 42 OFFCURVE",
"115 42 CURVE SMOOTH",
"126.598 42 OFFCURVE",
"136 32.598 OFFCURVE",
"136 21 CURVE SMOOTH",
"136 9.402 OFFCURVE",
"126.598 0 OFFCURVE",
"115 0 CURVE SMOOTH"
);
},
{
closed = 1;
nodes = (
"103.402 86 OFFCURVE",
"94 95.402 OFFCURVE",
"94 107 CURVE SMOOTH",
"94 118.598 OFFCURVE",
"103.402 128 OFFCURVE",
"115 128 CURVE SMOOTH",
"126.598 128 OFFCURVE",
"136 118.598 OFFCURVE",
"136 107 CURVE SMOOTH",
"136 95.402 OFFCURVE",
"126.598 86 OFFCURVE",
"115 86 CURVE SMOOTH"
);
}
);
width = 144;
}
);
unicode = 0041;
},
{
glyphname = B;
lastChange = "2013-05-31 22:27:45 +0200";
layers = (
{
layerId = "940E2F63-624A-4C3D-A909-721782B4CF41";
name = Regular;
paths = (
{
closed = 1;
nodes = (
"115 127.977 LINE",
"29 128 LINE",
"8 107 LINE",
"8 21 LINE",
"50 21 LINE",
"50 86 LINE",
"94 86 LINE",
"94 85 LINE",
"72 85 LINE",
"72 43 LINE",
"94 43 LINE",
"94 42 LINE",
"72 42 LINE",
"72 0 LINE",
"115 0 LINE",
"136 21 LINE",
"136 107 LINE"
);
},
{
closed = 1;
nodes = (
"126.598 0 OFFCURVE",
"136 9.402 OFFCURVE",
"136 21 CURVE SMOOTH",
"136 32.598 OFFCURVE",
"126.598 42 OFFCURVE",
"115 42 CURVE SMOOTH",
"103.402 42 OFFCURVE",
"94 32.598 OFFCURVE",
"94 21 CURVE SMOOTH",
"94 9.402 OFFCURVE",
"103.402 0 OFFCURVE",
"115 0 CURVE SMOOTH"
);
},
{
closed = 1;
nodes = (
"126.598 86 OFFCURVE",
"136 95.402 OFFCURVE",
"136 107 CURVE SMOOTH",
"136 118.598 OFFCURVE",
"126.598 128 OFFCURVE",
"115 128 CURVE SMOOTH",
"103.402 128 OFFCURVE",
"94 118.598 OFFCURVE",
"94 107 CURVE SMOOTH",
"94 95.402 OFFCURVE",
"103.402 86 OFFCURVE",
"115 86 CURVE SMOOTH"
);
},
{
closed = 1;
nodes = (
"40.598 86 OFFCURVE",
"50 95.402 OFFCURVE",
"50 107 CURVE SMOOTH",
"50 118.598 OFFCURVE",
"40.598 128 OFFCURVE",
"29 128 CURVE SMOOTH",
"17.402 128 OFFCURVE",
"8 118.598 OFFCURVE",
"8 107 CURVE SMOOTH",
"8 95.402 OFFCURVE",
"17.402 86 OFFCURVE",
"29 86 CURVE SMOOTH"
);
},
{
closed = 1;
nodes = (
"40.598 0 OFFCURVE",
"50 9.402 OFFCURVE",
"50 21 CURVE SMOOTH",
"50 32.598 OFFCURVE",
"40.598 42 OFFCURVE",
"29 42 CURVE SMOOTH",
"17.402 42 OFFCURVE",
"8 32.598 OFFCURVE",
"8 21 CURVE SMOOTH",
"8 9.402 OFFCURVE",
"17.402 0 OFFCURVE",
"29 0 CURVE SMOOTH"
);
},
{
closed = 1;
nodes = (
"83.598 0 OFFCURVE",
"93 9.402 OFFCURVE",
"93 21 CURVE SMOOTH",
"93 32.598 OFFCURVE",
"83.598 42 OFFCURVE",
"72 42 CURVE SMOOTH",
"60.402 42 OFFCURVE",
"51 32.598 OFFCURVE",
"51 21 CURVE SMOOTH",
"51 9.402 OFFCURVE",
"60.402 0 OFFCURVE",
"72 0 CURVE SMOOTH"
);
},
{
closed = 1;
nodes = (
"83.598 43 OFFCURVE",
"93 52.402 OFFCURVE",
"93 64 CURVE SMOOTH",
"93 75.598 OFFCURVE",
"83.598 85 OFFCURVE",
"72 85 CURVE SMOOTH",
"60.402 85 OFFCURVE",
"51 75.598 OFFCURVE",
"51 64 CURVE SMOOTH",
"51 52.402 OFFCURVE",
"60.402 43 OFFCURVE",
"72 43 CURVE SMOOTH"
);
}
);
width = 144;
}
);
unicode = 0042;
},
{
glyphname = C;
lastChange = "2013-05-31 22:30:00 +0200";
layers = (
{
layerId = "940E2F63-624A-4C3D-A909-721782B4CF41";
name = Regular;
paths = (
{
closed = 1;
nodes = (
"50 42 LINE",
"50 86 LINE",
"115 86 LINE SMOOTH",
"126.598 86.015 OFFCURVE",
"136 95.417 OFFCURVE",
"136 107.015 CURVE SMOOTH",
"136 118.613 OFFCURVE",
"126.598 128.015 OFFCURVE",
"115 128.015 CURVE SMOOTH",
"29.7992 128 LINE SMOOTH",
"17.402 128.015 OFFCURVE",
"8 118.613 OFFCURVE",
"8 107.015 CURVE SMOOTH",
"8 21 LINE SMOOTH",
"8 9.402 OFFCURVE",
"17.402 0 OFFCURVE",
"29 0 CURVE SMOOTH",
"115 0 LINE SMOOTH",
"126.598 0 OFFCURVE",
"136 9.402 OFFCURVE",
"136 21 CURVE SMOOTH",
"136 32.598 OFFCURVE",
"126.598 42 OFFCURVE",
"115 42 CURVE SMOOTH"
);
}
);
width = 144;
}
);
unicode = 0043;
},
{
glyphname = D;
lastChange = "2013-05-31 22:35:04 +0200";
layers = (
{
layerId = "940E2F63-624A-4C3D-A909-721782B4CF41";
name = Regular;
paths = (
{
closed = 1;
nodes = (
"29 128 LINE SMOOTH",
"17.402 128 OFFCURVE",
"8 118.598 OFFCURVE",
"8 107 CURVE SMOOTH",
"8 95.402 OFFCURVE",
"17.402 86 OFFCURVE",
"29 86 CURVE SMOOTH",
"94 86 LINE",
"94 42 LINE",
"50 42 LINE",
"50 64 LINE SMOOTH",
"50 75.598 OFFCURVE",
"40.598 85 OFFCURVE",
"29 85 CURVE SMOOTH",
"17.402 85 OFFCURVE",
"8 75.598 OFFCURVE",
"8 64 CURVE SMOOTH",
"8 21 LINE SMOOTH",
"8 9.402 OFFCURVE",
"17.402 0 OFFCURVE",
"29 0 CURVE SMOOTH",
"115 0 LINE SMOOTH",
"126.598 0 OFFCURVE",
"136 9.402 OFFCURVE",
"136 21 CURVE SMOOTH",
"136 107 LINE SMOOTH",
"136 118.598 OFFCURVE",
"126.598 128 OFFCURVE",
"115 128 CURVE SMOOTH"
);
}
);
width = 144;
}
);
unicode = 0044;
},
{
glyphname = E;
lastChange = "2013-05-31 22:40:10 +0200";
layers = (
{
layerId = "940E2F63-624A-4C3D-A909-721782B4CF41";
name = Regular;
paths = (
{
closed = 1;
nodes = (
"115 43 LINE SMOOTH",
"126.598 43 OFFCURVE",
"136 52.402 OFFCURVE",
"136 64 CURVE SMOOTH",
"136 107 LINE SMOOTH",
"136 118.598 OFFCURVE",
"126.598 128 OFFCURVE",
"115 128 CURVE SMOOTH",
"72 128 LINE SMOOTH",
"60.402 128 OFFCURVE",
"51 118.598 OFFCURVE",
"51 107 CURVE SMOOTH",
"51 95.402 OFFCURVE",
"60.402 86 OFFCURVE",
"72 86 CURVE SMOOTH",
"94 86 LINE",
"94 85 LINE",
"50 85 LINE",
"50 107 LINE SMOOTH",
"50 118.598 OFFCURVE",
"40.598 128 OFFCURVE",
"29 128 CURVE SMOOTH",
"17.402 128 OFFCURVE",
"8 118.598 OFFCURVE",
"8 107 CURVE SMOOTH",
"8 21 LINE SMOOTH",
"8 9.402 OFFCURVE",
"17.402 0 OFFCURVE",
"29 0 CURVE SMOOTH",
"115 0 LINE SMOOTH",
"126.598 0 OFFCURVE",
"136 9.402 OFFCURVE",
"136 21 CURVE SMOOTH",
"136 32.598 OFFCURVE",
"126.598 42 OFFCURVE",
"115 42 CURVE SMOOTH",
"50 42 LINE",
"50 43 LINE"
);
}
);
width = 144;
}
);
unicode = 0045;
},
{
glyphname = F;
lastChange = "2013-05-31 22:42:29 +0200";
layers = (
{
layerId = "940E2F63-624A-4C3D-A909-721782B4CF41";
name = Regular;
paths = (
{
closed = 1;
nodes = (
"50 85 LINE",
"50 86 LINE",
"115 86 LINE SMOOTH",
"126.598 86 OFFCURVE",
"136 95.402 OFFCURVE",
"136 107 CURVE SMOOTH",
"136 118.598 OFFCURVE",
"126.598 128 OFFCURVE",
"115 128 CURVE SMOOTH",
"29 128 LINE SMOOTH",
"17.402 128 OFFCURVE",
"8 118.598 OFFCURVE",
"8 107 CURVE SMOOTH",
"8 21 LINE SMOOTH",
"8 9.402 OFFCURVE",
"17.402 0 OFFCURVE",
"29 0 CURVE SMOOTH",
"40.598 0 OFFCURVE",
"50 9.402 OFFCURVE",
"50 21 CURVE SMOOTH",
"50 43 LINE",
"115 43 LINE SMOOTH",
"126.598 43 OFFCURVE",
"136 52.402 OFFCURVE",
"136 64 CURVE SMOOTH",
"136 75.598 OFFCURVE",
"126.598 85 OFFCURVE",
"115 85 CURVE SMOOTH"
);
}
);
width = 144;
}
);
unicode = 0046;
},
{
glyphname = H;
lastChange = "2013-05-31 22:43:23 +0200";
layers = (
{
layerId = "940E2F63-624A-4C3D-A909-721782B4CF41";
name = Regular;
paths = (
{
closed = 1;
nodes = (
"94 85 LINE",
"50 85 LINE",
"50 107 LINE SMOOTH",
"50 118.598 OFFCURVE",
"40.598 128 OFFCURVE",
"29 128 CURVE SMOOTH",
"17.402 128 OFFCURVE",
"8 118.598 OFFCURVE",
"8 107 CURVE SMOOTH",
"8 21 LINE SMOOTH",
"8 9.402 OFFCURVE",
"17.402 0 OFFCURVE",
"29 0 CURVE SMOOTH",
"40.598 0 OFFCURVE",
"50 9.402 OFFCURVE",
"50 21 CURVE SMOOTH",
"50 43 LINE",
"94 43 LINE",
"94 21 LINE SMOOTH",
"94 9.402 OFFCURVE",
"103.402 0 OFFCURVE",
"115 0 CURVE SMOOTH",
"126.598 0 OFFCURVE",
"136 9.402 OFFCURVE",
"136 21 CURVE SMOOTH",
"136 107 LINE SMOOTH",
"136 118.598 OFFCURVE",
"126.598 128 OFFCURVE",
"115 128 CURVE SMOOTH",
"103.402 128 OFFCURVE",
"94 118.598 OFFCURVE",
"94 107 CURVE SMOOTH"
);
}
);
width = 144;
}
);
unicode = 0048;
},
{
glyphname = J;
lastChange = "2013-05-31 22:44:47 +0200";
layers = (
{
layerId = "940E2F63-624A-4C3D-A909-721782B4CF41";
name = Regular;
paths = (
{
closed = 1;
nodes = (
"94 42 LINE",
"29 42 LINE SMOOTH",
"17.402 42 OFFCURVE",
"8 32.598 OFFCURVE",
"8 21 CURVE SMOOTH",
"8 9.402 OFFCURVE",
"17.402 0 OFFCURVE",
"29 0 CURVE SMOOTH",
"115 0 LINE SMOOTH",
"126.598 0 OFFCURVE",
"136 9.402 OFFCURVE",
"136 21 CURVE SMOOTH",
"136 107 LINE SMOOTH",
"136 118.598 OFFCURVE",
"126.598 128 OFFCURVE",
"115 128 CURVE SMOOTH",
"103.402 128 OFFCURVE",
"94 118.598 OFFCURVE",
"94 107 CURVE SMOOTH"
);
}
);
width = 144;
}
);
unicode = 004A;
},
{
glyphname = K;
lastChange = "2013-05-31 22:47:13 +0200";
layers = (
{
layerId = "940E2F63-624A-4C3D-A909-721782B4CF41";
name = Regular;
paths = (
{
closed = 1;
nodes = (
"93 85 LINE",
"93 86 LINE",
"115 86 LINE SMOOTH",
"126.598 86 OFFCURVE",
"136 95.402 OFFCURVE",
"136 107 CURVE SMOOTH",
"136 118.598 OFFCURVE",
"126.598 128 OFFCURVE",
"115 128 CURVE SMOOTH",
"72 128 LINE SMOOTH",
"60.402 128 OFFCURVE",
"51 118.598 OFFCURVE",
"51 107 CURVE SMOOTH",
"51 85 LINE",
"50 85 LINE",
"50 107 LINE SMOOTH",
"50 118.598 OFFCURVE",
"40.598 128 OFFCURVE",
"29 128 CURVE SMOOTH",
"17.402 128 OFFCURVE",
"8 118.598 OFFCURVE",
"8 107 CURVE SMOOTH",
"8 21 LINE SMOOTH",
"8 9.402 OFFCURVE",
"17.402 0 OFFCURVE",
"29 0 CURVE SMOOTH",
"40.598 0 OFFCURVE",
"50 9.402 OFFCURVE",
"50 21 CURVE SMOOTH",
"50 43 LINE",
"94 43 LINE",
"94 21 LINE SMOOTH",
"94 9.402 OFFCURVE",
"103.402 0 OFFCURVE",
"115 0 CURVE SMOOTH",
"126.598 0 OFFCURVE",
"136 9.402 OFFCURVE",
"136 21 CURVE SMOOTH",
"136 64 LINE SMOOTH",
"136 75.598 OFFCURVE",
"126.598 85 OFFCURVE",
"115 85 CURVE SMOOTH"
);
}
);
width = 144;
}
);
unicode = 004B;
},
{
glyphname = M;
lastChange = "2013-05-31 22:48:35 +0200";
layers = (
{
layerId = "940E2F63-624A-4C3D-A909-721782B4CF41";
name = Regular;
paths = (
{
closed = 1;
nodes = (
"29 128 LINE SMOOTH",
"17.402 128 OFFCURVE",
"8 118.598 OFFCURVE",
"8 107 CURVE SMOOTH",
"8 21 LINE SMOOTH",
"8 9.402 OFFCURVE",
"17.402 0 OFFCURVE",
"29 0 CURVE SMOOTH",
"40.598 0 OFFCURVE",
"50 9.402 OFFCURVE",
"50 21 CURVE SMOOTH",
"50 86 LINE",
"51 86 LINE",
"51 21 LINE SMOOTH",
"51 9.402 OFFCURVE",
"60.402 0 OFFCURVE",
"72 0 CURVE SMOOTH",
"83.598 0 OFFCURVE",
"93 9.402 OFFCURVE",
"93 21 CURVE SMOOTH",
"93 86 LINE",
"94 86 LINE",
"94 21 LINE SMOOTH",
"94 9.402 OFFCURVE",
"103.402 0 OFFCURVE",
"115 0 CURVE SMOOTH",
"126.598 0 OFFCURVE",
"136 9.402 OFFCURVE",
"136 21 CURVE SMOOTH",
"136 107 LINE SMOOTH",
"136 118.598 OFFCURVE",
"126.598 128 OFFCURVE",
"115 128 CURVE SMOOTH"
);
}
);
width = 144;
}
);
unicode = 004D;
},
{
glyphname = N;
lastChange = "2013-05-31 22:32:37 +0200";
layers = (
{
layerId = "940E2F63-624A-4C3D-A909-721782B4CF41";
name = Regular;
paths = (
{
closed = 1;
nodes = (
"94 42 LINE",
"93 42 LINE",
"93 107.015 LINE SMOOTH",
"93 118.613 OFFCURVE",
"83.598 128.015 OFFCURVE",
"72 128.015 CURVE SMOOTH",
"29 128.001 LINE SMOOTH",
"17.402 128.015 OFFCURVE",
"8 118.613 OFFCURVE",
"8 107.015 CURVE SMOOTH",
"8 21 LINE SMOOTH",
"8 9.402 OFFCURVE",
"17.402 0 OFFCURVE",
"29 0 CURVE SMOOTH",
"40.598 0 OFFCURVE",
"50 9.402 OFFCURVE",
"50 21 CURVE SMOOTH",
"50 86 LINE",
"51 86 LINE",
"51 21 LINE SMOOTH",
"51 9.402 OFFCURVE",
"60.402 0 OFFCURVE",
"72 0 CURVE SMOOTH",
"115 0 LINE SMOOTH",
"126.598 0 OFFCURVE",
"136 9.402 OFFCURVE",
"136 21 CURVE SMOOTH",
"136 107.015 LINE SMOOTH",
"136 118.613 OFFCURVE",
"126.598 128.015 OFFCURVE",
"115 128.015 CURVE SMOOTH",
"103.402 128.015 OFFCURVE",
"94 118.613 OFFCURVE",
"94 107.015 CURVE SMOOTH"
);
}
);
width = 144;
}
);
unicode = 004E;
},
{
glyphname = O;
lastChange = "2013-05-31 22:50:42 +0200";
layers = (
{
layerId = "940E2F63-624A-4C3D-A909-721782B4CF41";
name = Regular;
paths = (
{
closed = 1;
nodes = (
"29 128 LINE SMOOTH",
"17.402 128 OFFCURVE",
"8 118.598 OFFCURVE",
"8 107 CURVE SMOOTH",
"8 21 LINE SMOOTH",
"8 9.402 OFFCURVE",
"17.402 0 OFFCURVE",
"29 0 CURVE SMOOTH",
"115 0 LINE SMOOTH",
"126.598 0 OFFCURVE",
"136 9.402 OFFCURVE",
"136 21 CURVE SMOOTH",
"136 107 LINE SMOOTH",
"136 118.598 OFFCURVE",
"126.598 128 OFFCURVE",
"115 128 CURVE SMOOTH"
);
},
{
closed = 1;
nodes = (
"50 86 LINE",
"94 86 LINE",
"94 42 LINE",
"50 42 LINE"
);
}
);
width = 144;
}
);
unicode = 004F;
},
{
glyphname = P;
lastChange = "2013-05-31 22:53:48 +0200";
layers = (
{
layerId = "940E2F63-624A-4C3D-A909-721782B4CF41";
name = Regular;
paths = (
{
closed = 1;
nodes = (
"29 128 LINE SMOOTH",
"17.402 128 OFFCURVE",
"8 118.598 OFFCURVE",
"8 107 CURVE SMOOTH",
"8 21 LINE SMOOTH",
"8 9.402 OFFCURVE",
"17.402 0 OFFCURVE",
"29 0 CURVE SMOOTH",
"40.598 0 OFFCURVE",
"50 9.402 OFFCURVE",
"50 21 CURVE SMOOTH",
"50 86 LINE",
"94 86 LINE",
"94 85 LINE",
"72 85 LINE SMOOTH",
"60.402 85 OFFCURVE",
"51 75.598 OFFCURVE",
"51 64 CURVE SMOOTH",
"51 52.402 OFFCURVE",
"60.402 43 OFFCURVE",
"72 43 CURVE SMOOTH",
"115 43 LINE SMOOTH",
"126.598 43 OFFCURVE",
"136 52.402 OFFCURVE",
"136 64 CURVE SMOOTH",
"136 107 LINE SMOOTH",
"136 118.598 OFFCURVE",
"126.598 128 OFFCURVE",
"115 128 CURVE SMOOTH"
);
}
);
width = 144;
}
);
unicode = 0050;
},
{
glyphname = Q;
lastChange = "2013-06-01 05:47:14 +0200";
layers = (
{
layerId = "940E2F63-624A-4C3D-A909-721782B4CF41";
name = Regular;
paths = (
{
closed = 1;
nodes = (
"8 128 LINE",
"8 0 LINE",
"136 0 LINE",
"136 128 LINE"
);
},
{
closed = 1;
nodes = (
"94 42 LINE",
"88 42 LINE",
"88 43 LINE",
"56 43 LINE",
"56 42 LINE",
"50 42 LINE",
"50 86 LINE",
"94 86 LINE"
);
}
);
width = 144;
}
);
unicode = 0051;
},
{
glyphname = R;
lastChange = "2013-06-01 05:47:48 +0200";
layers = (
{
layerId = "940E2F63-624A-4C3D-A909-721782B4CF41";
name = Regular;
paths = (
{
closed = 1;
nodes = (
"136 43 LINE",
"136 128 LINE",
"8 128 LINE",
"8 0 LINE",
"50 0 LINE",
"50 86 LINE",
"94 86 LINE",
"94 85 LINE",
"51 85 LINE",
"51 0 LINE",
"136 0 LINE",
"136 42 LINE",
"93 42 LINE",
"93 43 LINE"
);
}
);
width = 144;
}
);
unicode = 0052;
},
{
glyphname = T;
lastChange = "2013-06-01 05:48:14 +0200";
layers = (
{
layerId = "940E2F63-624A-4C3D-A909-721782B4CF41";
name = Regular;
paths = (
{
closed = 1;
nodes = (
"8 128 LINE",
"8 85 LINE",
"40 85 LINE",
"40 86 LINE",
"51 86 LINE",
"51 0 LINE",
"93 0 LINE",
"93 86 LINE",
"104 86 LINE",
"104 85 LINE",
"136 85 LINE",
"136 128 LINE"
);
}
);
width = 144;
}
);
unicode = 0054;
},
{
glyphname = V;
lastChange = "2013-06-01 05:49:00 +0200";
layers = (
{
layerId = "940E2F63-624A-4C3D-A909-721782B4CF41";
name = Regular;
paths = (
{
closed = 1;
nodes = (
"8 0 LINE",
"93 0 LINE",
"93 43 LINE",
"136 43 LINE",
"136 128 LINE",
"94 128 LINE",
"94 85 LINE",
"51 85 LINE",
"51 42 LINE",
"50 42 LINE",
"50 128 LINE",
"8 128 LINE"
);
}
);
width = 144;
}
);
unicode = 0056;
},
{
glyphname = X;
lastChange = "2013-06-01 05:49:40 +0200";
layers = (
{
layerId = "940E2F63-624A-4C3D-A909-721782B4CF41";
name = Regular;
paths = (
{
closed = 1;
nodes = (
"136 85 LINE",
"136 128 LINE",
"8 128 LINE",
"8 85 LINE",
"50 85 LINE",
"50 86 LINE",
"51 86 LINE",
"51 42 LINE",
"50 42 LINE",
"50 43 LINE",
"8 43 LINE",
"8 0 LINE",
"136 0 LINE",
"136 43 LINE",
"94 43 LINE",
"94 42 LINE",
"93 42 LINE",
"93 86 LINE",
"94 86 LINE",
"94 85 LINE"
);
}
);
width = 144;
}
);
unicode = 0058;
},
{
glyphname = Y;
lastChange = "2013-06-01 05:50:06 +0200";
layers = (
{
layerId = "940E2F63-624A-4C3D-A909-721782B4CF41";
name = Regular;
paths = (
{
closed = 1;
nodes = (
"94 128 LINE",
"94 85 LINE",
"50 85 LINE",
"50 128 LINE",
"8 128 LINE",
"8 43 LINE",
"94 43 LINE",
"94 42 LINE",
"8 42 LINE",
"8 0 LINE",
"136 0 LINE",
"136 128 LINE"
);
}
);
width = 144;
}
);
unicode = 0059;
},
{
glyphname = zero;
lastChange = "2013-06-01 05:51:58 +0200";
layers = (
{
components = (
{
name = O;
transform = "{1, 0, 0, 1, 0, 0}";
}
);
layerId = "940E2F63-624A-4C3D-A909-721782B4CF41";
name = Regular;
paths = (
{
closed = 1;
nodes = (
"51 43 LINE",
"93 43 LINE",
"93 85 LINE",
"51 85 LINE"
);
}
);
width = 144;
}
);
unicode = 0030;
},
{
glyphname = one;
lastChange = "2013-06-01 05:52:17 +0200";
layers = (
{
layerId = "940E2F63-624A-4C3D-A909-721782B4CF41";
name = Regular;
paths = (
{
closed = 1;
nodes = (
"93 42 LINE",
"93 128 LINE",
"8 128 LINE",
"8 86 LINE",
"51 86 LINE",
"51 42 LINE",
"8 42 LINE",
"8 0 LINE",
"136 0 LINE",
"136 42 LINE"
);
}
);
width = 144;
}
);
unicode = 0031;
},
{
glyphname = four;
lastChange = "2013-06-01 05:52:36 +0200";
layers = (
{
layerId = "940E2F63-624A-4C3D-A909-721782B4CF41";
name = Regular;
paths = (
{
closed = 1;
nodes = (
"94 128 LINE",
"94 85 LINE",
"50 85 LINE",
"50 128 LINE",
"8 128 LINE",
"8 43 LINE",
"94 43 LINE",
"94 0 LINE",
"136 0 LINE",
"136 128 LINE"
);
}
);
width = 144;
}
);
unicode = 0034;
},
{
glyphname = seven;
lastChange = "2013-06-01 05:52:57 +0200";
layers = (
{
layerId = "940E2F63-624A-4C3D-A909-721782B4CF41";
name = Regular;
paths = (
{
closed = 1;
nodes = (
"8 128 LINE",
"8 86 LINE",
"104 86 LINE",
"104 85 LINE",
"51 85 LINE",
"51 0 LINE",
"93 0 LINE",
"93 43 LINE",
"136 43 LINE",
"136 128 LINE"
);
}
);
width = 144;
}
);
unicode = 0037;
},
{
glyphname = eight;
lastChange = "2013-06-01 05:53:44 +0200";
layers = (
{
layerId = "940E2F63-624A-4C3D-A909-721782B4CF41";
name = Regular;
paths = (
{
closed = 1;
nodes = (
"8 128 LINE",
"8 0 LINE",
"136 0 LINE",
"136 128 LINE"
);
},
{
closed = 1;
nodes = (
"94 85 LINE",
"93 85 LINE",
"93 43 LINE",
"94 43 LINE",
"94 42 LINE",
"50 42 LINE",
"50 43 LINE",
"51 43 LINE",
"51 85 LINE",
"50 85 LINE",
"50 86 LINE",
"94 86 LINE"
);
}
);
width = 144;
}
);
unicode = 0038;
},
{
glyphname = asterisk;
lastChange = "2013-06-01 05:54:06 +0200";
layers = (
{
components = (
{
name = plus;
transform = "{1, 0, 0, 1, 0, 0}";
}
);
layerId = "940E2F63-624A-4C3D-A909-721782B4CF41";
name = Regular;
paths = (
{
closed = 1;
nodes = (
"50 128 LINE",
"8 128 LINE",
"8 86 LINE",
"50 86 LINE"
);
},
{
closed = 1;
nodes = (
"94 128 LINE",
"94 86 LINE",
"136 86 LINE",
"136 128 LINE"
);
},
{
closed = 1;
nodes = (
"8 0 LINE",
"50 0 LINE",
"50 42 LINE",
"8 42 LINE"
);
},
{
closed = 1;
nodes = (
"94 0 LINE",
"136 0 LINE",
"136 42 LINE",
"94 42 LINE"
);
}
);
width = 144;
}
);
unicode = 002A;
},
{
glyphname = backslash;
lastChange = "2013-06-01 05:54:27 +0200";
layers = (
{
layerId = "940E2F63-624A-4C3D-A909-721782B4CF41";
name = Regular;
paths = (
{
closed = 1;
nodes = (
"8 0 LINE",
"50 0 LINE",
"50 128 LINE",
"8 128 LINE"
);
},
{
closed = 1;
nodes = (
"51 0 LINE",
"93 0 LINE",
"93 128 LINE",
"51 128 LINE"
);
},
{
closed = 1;
nodes = (
"94 0 LINE",
"136 0 LINE",
"136 128 LINE",
"94 128 LINE"
);
}
);
width = 144;
}
);
unicode = 005C;
},
{
glyphname = bullet;
lastChange = "2013-06-01 05:54:40 +0200";
layers = (
{
layerId = "940E2F63-624A-4C3D-A909-721782B4CF41";
name = Regular;
paths = (
{
closed = 1;
nodes = (
"8 128 LINE",
"8 86 LINE",
"136 86 LINE",
"136 128 LINE"
);
},
{
closed = 1;
nodes = (
"8 85 LINE",
"8 43 LINE",
"136 43 LINE",
"136 85 LINE"
);
},
{
closed = 1;
nodes = (
"8 42 LINE",
"8 0 LINE",
"136 0 LINE",
"136 42 LINE"
);
}
);
width = 144;
}
);
unicode = 2022;
},
{
glyphname = comma;
lastChange = "2013-05-10 07:48:47 +0200";
layers = (
{
layerId = "940E2F63-624A-4C3D-A909-721782B4CF41";
name = Regular;
paths = (
{
closed = 1;
nodes = (
"8 0 LINE",
"136 0 LINE",
"136 128 LINE",
"8 128 LINE"
);
}
);
width = 144;
}
);
unicode = 002C;
},
{
glyphname = ellipsis;
lastChange = "2013-06-01 05:55:23 +0200";
layers = (
{
layerId = "940E2F63-624A-4C3D-A909-721782B4CF41";
name = Regular;
paths = (
{
closed = 1;
nodes = (
"50 42 LINE",
"8 42 LINE",
"8 0 LINE",
"50 0 LINE"
);
},
{
closed = 1;
nodes = (
"8 128 LINE",
"8 86 LINE",
"136 86 LINE",
"136 128 LINE"
);
},
{
closed = 1;
nodes = (
"8 85 LINE",
"8 43 LINE",
"136 43 LINE",
"136 85 LINE"
);
},
{
closed = 1;
nodes = (
"93 42 LINE",
"51 42 LINE",
"51 0 LINE",
"93 0 LINE"
);
},
{
closed = 1;
nodes = (
"136 42 LINE",
"94 42 LINE",
"94 0 LINE",
"136 0 LINE"
);
}
);
width = 144;
}
);
unicode = 2026;
},
{
glyphname = exclam;
lastChange = "2013-06-01 05:56:12 +0200";
layers = (
{
layerId = "940E2F63-624A-4C3D-A909-721782B4CF41";
name = Regular;
paths = (
{
closed = 1;
nodes = (
"136 128 LINE",
"94 128 LINE",
"94 43 LINE",
"136 43 LINE"
);
},
{
closed = 1;
nodes = (
"93 128 LINE",
"51 128 LINE",
"51 43 LINE",
"93 43 LINE"
);
},
{
closed = 1;
nodes = (
"50 128 LINE",
"8 128 LINE",
"8 43 LINE",
"50 43 LINE"
);
},
{
closed = 1;
nodes = (
"50 42 LINE",
"8 42 LINE",
"8 0 LINE",
"50 0 LINE"
);
},
{
closed = 1;
nodes = (
"136 42 LINE",
"94 42 LINE",
"94 0 LINE",
"136 0 LINE"
);
},
{
closed = 1;
nodes = (
"93 42 LINE",
"51 42 LINE",
"51 0 LINE",
"93 0 LINE"
);
}
);
width = 144;
}
);
unicode = 0021;
},
{
glyphname = numbersign;
lastChange = "2013-06-01 05:58:09 +0200";
layers = (
{
layerId = "940E2F63-624A-4C3D-A909-721782B4CF41";
name = Regular;
paths = (
{
closed = 1;
nodes = (
"8 128 LINE",
"8 0 LINE",
"136 0 LINE",
"136 128 LINE"
);
},
{
closed = 1;
nodes = (
"51 43 LINE",
"51 42 LINE",
"50 42 LINE",
"50 43 LINE"
);
},
{
closed = 1;
nodes = (
"94 43 LINE",
"94 42 LINE",
"93 42 LINE",
"93 43 LINE"
);
},
{
closed = 1;
nodes = (
"51 86 LINE",
"51 85 LINE",
"50 85 LINE",
"50 86 LINE"
);
},
{
closed = 1;
nodes = (
"94 86 LINE",
"94 85 LINE",
"93 85 LINE",
"93 86 LINE"
);
}
);
width = 144;
}
);
unicode = 0023;
},
{
glyphname = question;
lastChange = "2013-06-01 05:58:44 +0200";
layers = (
{
layerId = "940E2F63-624A-4C3D-A909-721782B4CF41";
name = Regular;
paths = (
{
closed = 1;
nodes = (
"8 128 LINE",
"8 86 LINE",
"94 86 LINE",
"94 85 LINE",
"51 85 LINE",
"51 43 LINE",
"136 43 LINE",
"136 128 LINE"
);
},
{
closed = 1;
nodes = (
"93 42 LINE",
"51 42 LINE",
"51 0 LINE",
"93 0 LINE"
);
}
);
width = 144;
}
);
unicode = 003F;
},
{
glyphname = braceleft;
lastChange = "2013-06-01 05:59:17 +0200";
layers = (
{
layerId = "940E2F63-624A-4C3D-A909-721782B4CF41";
name = Regular;
paths = (
{
closed = 1;
nodes = (
"136 86 LINE",
"136 128 LINE",
"51 128 LINE",
"51 85 LINE",
"8 85 LINE",
"8 43 LINE",
"51 43 LINE",
"51 0 LINE",
"136 0 LINE",
"136 42 LINE",
"93 42 LINE",
"93 86 LINE"
);
}
);
width = 144;
}
);
unicode = 007B;
},
{
glyphname = divide;
lastChange = "2013-06-01 05:59:55 +0200";
layers = (
{
components = (
{
name = minus;
transform = "{1, 0, 0, 1, 0, 0}";
}
);
layerId = "940E2F63-624A-4C3D-A909-721782B4CF41";
name = Regular;
paths = (
{
closed = 1;
nodes = (
"51 42 LINE",
"51 0 LINE",
"93 0 LINE",
"93 42 LINE"
);
},
{
closed = 1;
nodes = (
"51 86 LINE",
"93 86 LINE",
"93 128 LINE",
"51 128 LINE"
);
}
);
width = 144;
}
);
unicode = 00F7;
},
{
glyphname = minus;
lastChange = "2013-06-01 06:00:08 +0200";
layers = (
{
layerId = "940E2F63-624A-4C3D-A909-721782B4CF41";
name = Regular;
paths = (
{
closed = 1;
nodes = (
"8 85 LINE",
"8 43 LINE",
"136 43 LINE",
"136 85 LINE"
);
}
);
width = 144;
}
);
unicode = 2212;
},
{
glyphname = plus;
lastChange = "2013-06-01 06:00:35 +0200";
layers = (
{
layerId = "940E2F63-624A-4C3D-A909-721782B4CF41";
name = Regular;
paths = (
{
closed = 1;
nodes = (
"136 85 LINE",
"93 85 LINE",
"93 128 LINE",
"51 128 LINE",
"51 85 LINE",
"8 85 LINE",
"8 43 LINE",
"51 43 LINE",
"51 0 LINE",
"93 0 LINE",
"93 43 LINE",
"136 43 LINE"
);
}
);
width = 144;
}
);
unicode = 002B;
},
{
glyphname = ampersand;
lastChange = "2013-06-01 06:01:05 +0200";
layers = (
{
layerId = "940E2F63-624A-4C3D-A909-721782B4CF41";
name = Regular;
paths = (
{
closed = 1;
nodes = (
"51 128 LINE",
"51 85 LINE",
"8 85 LINE",
"8 0 LINE",
"136 0 LINE",
"136 42 LINE",
"40 42 LINE",
"40 43 LINE",
"136 43 LINE",
"136 128 LINE"
);
},
{
closed = 1;
nodes = (
"94 86 LINE",
"94 85 LINE",
"93 85 LINE",
"93 86 LINE"
);
}
);
width = 144;
}
);
unicode = 0026;
},
{
glyphname = degree;
lastChange = "2013-06-01 06:01:45 +0200";
layers = (
{
layerId = "940E2F63-624A-4C3D-A909-721782B4CF41";
name = Regular;
paths = (
{
closed = 1;
nodes = (
"93 128 LINE",
"8 128 LINE",
"8 43 LINE",
"93 43 LINE"
);
},
{
closed = 1;
nodes = (
"94 42 LINE",
"51 42 LINE",
"51 0 LINE",
"136 0 LINE",
"136 85 LINE",
"94 85 LINE"
);
},
{
closed = 1;
nodes = (
"51 86 LINE",
"51 85 LINE",
"50 85 LINE",
"50 86 LINE"
);
}
